<svg version="1.1" id="Layer_1" xmlns="http://www.w3.org/2000/svg" xmlns:xlink="http://www.w3.org/1999/xlink" x="0px" y="0px"
	 width="100%" viewBox="0 0 225 225" enable-background="new 0 0 225 225" xml:space="preserve">
<path fill="#FEEB0E" opacity="1.000000" stroke="none" 
	d="
M104.000000,226.000000 
	C69.333336,226.000000 35.166672,226.000000 1.000005,226.000000 
	C1.000003,151.000000 1.000003,76.000015 1.000002,1.000015 
	C75.999992,1.000010 150.999985,1.000010 225.999969,1.000005 
	C225.999985,75.999985 225.999985,150.999969 226.000000,225.999969 
	C185.500000,226.000000 145.000000,226.000000 104.000000,226.000000 
M19.901621,148.013718 
	C30.274824,147.961090 40.648029,147.908463 51.584126,147.895401 
	C51.762363,147.585266 51.940601,147.275131 52.689621,146.591980 
	C64.681099,124.705193 76.672585,102.818413 89.437363,79.520203 
	C80.870316,79.520203 73.731651,78.662010 66.898521,79.740211 
	C58.595631,81.050331 51.626633,85.852509 47.434391,93.314110 
	C37.444454,111.094810 27.857834,129.102112 17.909355,147.569077 
	C18.263735,147.664841 18.618114,147.760605 19.901621,148.013718 
M170.765579,81.362434 
	C170.514053,80.622849 170.262527,79.883263 169.083939,78.986443 
	C159.927246,78.979805 150.767319,79.109123 141.615707,78.890099 
	C138.561996,78.817009 136.945175,79.749886 135.470886,82.479462 
	C124.588310,102.628021 113.509293,122.670448 102.508217,142.755112 
	C101.816360,144.018234 101.260262,145.355713 99.946739,148.119293 
	C106.315697,148.119293 111.684715,148.263245 117.043327,148.088348 
	C127.204926,147.756683 135.913834,143.450775 140.963181,134.942947 
	C151.280823,117.558380 160.533264,99.541611 170.765579,81.362434 
M93.861626,146.709457 
	C97.124077,140.749893 100.408760,134.802353 103.644691,128.828415 
	C112.155151,113.117035 120.644402,97.394173 129.670120,81.284439 
	C129.448029,80.540047 129.225937,79.795662 128.082977,78.861000 
	C117.717789,78.934692 107.352592,79.008385 96.448067,79.050758 
	C96.321114,79.362564 96.194160,79.674362 95.635414,80.528473 
	C94.168243,83.120056 92.659653,85.689178 91.240608,88.306854 
	C81.782181,105.754585 72.342880,123.212685 62.391136,140.934509 
	C62.280945,141.284775 62.170750,141.635056 61.822762,142.221359 
	C61.822762,142.221359 61.884888,142.550598 61.369663,142.872406 
	C61.252800,143.249603 61.135933,143.626785 60.569527,144.385239 
	C60.367027,144.918381 60.164528,145.451523 59.459061,146.409485 
	C59.969322,146.892395 60.479584,147.375290 61.917027,148.013870 
	C71.951439,147.961746 81.985855,147.909637 92.587669,147.915024 
	C92.829208,147.640030 93.070755,147.365036 93.861626,146.709457 
M178.836746,85.449127 
	C178.275024,86.271072 177.612473,87.042084 177.167465,87.922997 
	C173.457062,95.268082 174.938629,103.447304 180.919907,108.873886 
	C186.544174,113.976578 195.355042,114.723717 201.746292,110.639900 
	C208.237381,106.492294 211.180450,98.088188 208.867477,90.503632 
	C205.240265,78.609467 188.621765,74.649338 178.836746,85.449127 
z"/>
<path fill="#0F1115" opacity="1.000000" stroke="none" 
	d="
M129.142105,81.675880 
	C120.644402,97.394173 112.155151,113.117035 103.644691,128.828415 
	C100.408760,134.802353 97.124077,140.749893 93.350815,146.992767 
	C92.566757,147.469910 92.293510,147.663712 92.020271,147.857529 
	C81.985855,147.909637 71.951439,147.961746 61.410854,147.661041 
	C60.590466,146.867020 60.276253,146.425842 59.962036,145.984665 
	C60.164528,145.451523 60.367027,144.918381 60.988869,143.985855 
	C61.567104,143.241180 61.725994,142.895889 61.884888,142.550598 
	C61.884888,142.550598 61.822762,142.221359 62.127174,141.916260 
	C62.586853,141.296570 62.742111,140.981995 62.897369,140.667419 
	C72.342880,123.212685 81.782181,105.754585 91.240608,88.306854 
	C92.659653,85.689178 94.168243,83.120056 96.033897,80.138290 
	C96.663208,79.564278 96.848213,79.342270 96.987404,79.082077 
	C107.352592,79.008385 117.717789,78.934692 128.557938,79.393616 
	C129.069305,80.509445 129.105698,81.092659 129.142105,81.675880 
z"/>
<path fill="#0F1115" opacity="1.000000" stroke="none" 
	d="
M170.224411,81.785225 
	C160.533264,99.541611 151.280823,117.558380 140.963181,134.942947 
	C135.913834,143.450775 127.204926,147.756683 117.043327,148.088348 
	C111.684715,148.263245 106.315697,148.119293 99.946739,148.119293 
	C101.260262,145.355713 101.816360,144.018234 102.508217,142.755112 
	C113.509293,122.670448 124.588310,102.628021 135.470886,82.479462 
	C136.945175,79.749886 138.561996,78.817009 141.615707,78.890099 
	C150.767319,79.109123 159.927246,78.979805 169.566254,79.505936 
	C170.107178,80.612030 170.165787,81.198631 170.224411,81.785225 
z"/>
<path fill="#101115" opacity="1.000000" stroke="none" 
	d="
M51.021233,147.855820 
	C40.648029,147.908463 30.274824,147.961090 19.322548,147.767242 
	C18.558044,147.319946 18.346321,147.152313 18.108305,147.017883 
	C27.857834,129.102112 37.444454,111.094810 47.434391,93.314110 
	C51.626633,85.852509 58.595631,81.050331 66.898521,79.740211 
	C73.731651,78.662010 80.870316,79.520203 89.437363,79.520203 
	C76.672585,102.818413 64.681099,124.705193 52.199417,146.900055 
	C51.428493,147.369446 51.199169,147.585342 51.021233,147.855820 
z"/>
<path fill="#101115" opacity="1.000000" stroke="none" 
	d="
M179.057526,85.155769 
	C188.621765,74.649338 205.240265,78.609467 208.867477,90.503632 
	C211.180450,98.088188 208.237381,106.492294 201.746292,110.639900 
	C195.355042,114.723717 186.544174,113.976578 180.919907,108.873886 
	C174.938629,103.447304 173.457062,95.268082 177.167465,87.922997 
	C177.612473,87.042084 178.275024,86.271072 179.057526,85.155769 
z"/>
<path fill="#020215" opacity="1.000000" stroke="none" 
	d="
M59.710548,146.197083 
	C60.276253,146.425842 60.590466,146.867020 60.947266,147.583191 
	C60.479584,147.375290 59.969322,146.892395 59.710548,146.197083 
z"/>
<path fill="#020215" opacity="1.000000" stroke="none" 
	d="
M129.406113,81.480164 
	C129.105698,81.092659 129.069305,80.509445 129.018372,79.488747 
	C129.225937,79.795662 129.448029,80.540047 129.406113,81.480164 
z"/>
<path fill="#000015" opacity="1.000000" stroke="none" 
	d="
M170.494995,81.573830 
	C170.165787,81.198631 170.107178,80.612030 170.029770,79.584564 
	C170.262527,79.883263 170.514053,80.622849 170.494995,81.573830 
z"/>
<path fill="#020215" opacity="1.000000" stroke="none" 
	d="
M96.717735,79.066422 
	C96.848213,79.342270 96.663208,79.564278 96.249794,79.867134 
	C96.194160,79.674362 96.321114,79.362564 96.717735,79.066422 
z"/>
<path fill="#020215" opacity="1.000000" stroke="none" 
	d="
M62.644257,140.800964 
	C62.742111,140.981995 62.586853,141.296570 62.246075,141.798233 
	C62.170750,141.635056 62.280945,141.284775 62.644257,140.800964 
z"/>
<path fill="#020215" opacity="1.000000" stroke="none" 
	d="
M61.627274,142.711502 
	C61.725994,142.895889 61.567104,143.241180 61.213638,143.795227 
	C61.135933,143.626785 61.252800,143.249603 61.627274,142.711502 
z"/>
<path fill="#000015" opacity="1.000000" stroke="none" 
	d="
M18.008831,147.293488 
	C18.346321,147.152313 18.558044,147.319946 18.857985,147.688568 
	C18.618114,147.760605 18.263735,147.664841 18.008831,147.293488 
z"/>
<path fill="#000015" opacity="1.000000" stroke="none" 
	d="
M51.302681,147.875610 
	C51.199169,147.585342 51.428493,147.369446 51.914028,147.086578 
	C51.940601,147.275131 51.762363,147.585266 51.302681,147.875610 
z"/>
<path fill="#020215" opacity="1.000000" stroke="none" 
	d="
M92.303970,147.886276 
	C92.293510,147.663712 92.566757,147.469910 93.076141,147.183075 
	C93.070755,147.365036 92.829208,147.640030 92.303970,147.886276 
z"/>
</svg>