<svg version="1.1" id="Layer_1" xmlns="http://www.w3.org/2000/svg" xmlns:xlink="http://www.w3.org/1999/xlink" x="0px" y="0px"
	 width="100%" viewBox="0 0 200 200" enable-background="new 0 0 200 200" xml:space="preserve">
<path fill="#0110D8" opacity="1.000000" stroke="none" 
	d="
M119.000000,201.000000 
	C79.357826,201.000000 40.215649,201.000000 1.036737,201.000000 
	C1.036737,134.399536 1.036737,67.799034 1.036737,1.099268 
	C67.558670,1.099268 134.117538,1.099268 200.838196,1.099268 
	C200.838196,67.666351 200.838196,134.333145 200.838196,201.000000 
	C173.799316,201.000000 146.649658,201.000000 119.000000,201.000000 
M107.984169,160.013275 
	C107.984169,160.013275 108.020111,159.997726 108.725044,159.926529 
	C109.193970,159.875839 109.662888,159.825150 110.243126,160.041687 
	C110.243126,160.041687 110.587395,160.043335 110.587395,160.043335 
	C110.587395,160.043335 110.656006,159.641647 110.552528,159.443726 
	C110.552528,159.443726 110.431755,159.255844 111.069168,158.737671 
	C114.749901,152.460251 112.990845,146.684845 109.521614,141.009003 
	C108.243034,138.917191 106.350670,136.739456 106.200424,134.502686 
	C105.681854,126.782715 105.784355,119.019691 105.697899,111.272530 
	C105.647812,106.783859 105.688797,102.294174 105.688797,96.627769 
	C103.675323,98.508278 103.021629,99.646225 102.366127,99.647270 
	C97.296478,99.655342 92.224838,99.317757 87.157722,99.384506 
	C85.816818,99.402161 83.469429,100.279839 83.334534,101.063797 
	C82.782471,104.272079 82.746887,107.605690 82.926216,110.870903 
	C82.959846,111.483124 84.849426,111.993408 85.882545,112.550735 
	C86.308334,111.614227 86.734131,110.677719 88.017693,109.827255 
	C93.092072,109.075211 94.812790,111.352753 94.266632,116.269295 
	C93.293266,125.031502 96.678177,134.374466 90.653336,142.647186 
	C90.653336,142.647186 90.466370,142.696442 89.872612,142.770096 
	C89.549286,143.461365 89.225960,144.152618 88.939499,144.907455 
	C88.939499,144.907455 88.867844,144.923737 88.206421,145.192612 
	C84.784096,151.461853 85.439499,156.080399 90.524178,159.176834 
	C90.754974,159.353973 90.920700,159.579041 91.158447,160.575241 
	C95.549660,165.056168 103.259979,165.267792 107.004410,160.979462 
	C107.004410,160.979462 107.031952,161.002136 107.572655,160.961578 
	C107.718887,160.654877 107.865120,160.348160 107.984169,160.013275 
M64.302330,149.727951 
	C64.520462,149.439194 64.738594,149.150421 64.949539,148.936615 
	C64.949539,148.936615 64.875427,148.923309 65.596672,148.862381 
	C67.043930,146.496277 69.681282,144.138885 69.698677,141.762314 
	C69.738884,136.270096 72.017723,132.362518 75.621933,128.689865 
	C76.777908,127.511940 77.978325,125.752327 78.027573,124.222435 
	C78.234573,117.791801 78.209129,111.335320 77.813110,104.916412 
	C77.712585,103.286995 75.934311,101.761093 74.032837,100.103172 
	C66.562325,100.234688 59.288284,99.550522 52.733887,94.688026 
	C52.568878,94.473648 52.355137,94.333801 51.730846,93.647591 
	C50.397118,91.634903 48.256565,89.760635 47.883022,87.583221 
	C46.821068,81.393051 46.480076,75.079178 45.874935,68.896950 
	C45.874935,68.896950 45.790024,68.904434 46.477398,68.810753 
	C48.284500,66.327232 50.091599,63.843716 52.354012,60.774998 
	C58.028198,55.845577 64.644196,53.168831 71.841637,55.801979 
	C75.562347,57.163189 77.241478,56.884094 79.599945,53.931934 
	C84.152901,48.232868 91.306488,48.096756 96.396416,53.218563 
	C95.281006,55.226887 93.495308,57.144836 93.154182,59.292263 
	C91.992432,66.605644 87.501091,70.674118 80.343483,73.230156 
	C79.185066,75.117249 78.026649,77.004341 77.003708,78.982254 
	C77.003708,78.982254 76.874763,78.880119 76.300125,79.263290 
	C75.115395,81.351830 72.469475,83.158592 75.215141,86.214706 
	C75.215141,86.214706 75.537689,86.178757 75.895653,86.612503 
	C76.255478,86.671104 76.615303,86.729713 77.490913,87.032318 
	C77.681061,87.028297 77.871216,87.024269 78.643997,87.445930 
	C82.192505,88.839958 83.344070,87.489632 83.325943,83.827827 
	C89.344238,74.572670 96.225578,73.945221 102.657166,82.425751 
	C105.348427,84.299423 107.674133,84.747597 108.936226,80.934784 
	C108.936226,80.934784 108.839195,80.866173 109.533325,80.796181 
	C112.286354,78.013237 111.239075,72.674576 106.239334,71.131416 
	C100.043503,69.219078 100.158203,66.013695 101.764275,61.328472 
	C101.918587,60.878304 101.839157,60.348011 101.967102,59.951530 
	C101.967102,59.951530 101.844116,59.888412 102.507309,59.746384 
	C104.268478,57.765095 106.029648,55.783810 107.862579,53.867573 
	C107.862579,53.867573 107.836319,53.774342 108.527443,53.817165 
	C114.976601,50.694462 121.832596,50.467178 129.514816,51.042149 
	C139.125839,55.066040 144.118942,62.366520 143.980804,72.704285 
	C143.932205,76.341087 146.145126,77.605209 148.382568,78.908844 
	C153.857834,82.098969 155.272629,85.084251 153.992371,92.079865 
	C153.081909,97.054832 150.053650,99.574020 144.356659,100.095726 
	C137.254852,100.746094 137.032150,101.079308 138.632126,108.661079 
	C149.299835,109.840126 156.475723,106.690979 160.755173,97.489655 
	C162.623917,93.471657 162.328842,88.447296 163.398621,83.389503 
	C163.655579,80.399406 162.814957,78.180748 159.236832,77.659576 
	C159.236832,77.659576 159.250443,77.444435 159.493347,76.734566 
	C159.204056,75.813751 159.076996,74.796593 158.597336,73.988823 
	C156.547287,70.536446 153.632309,67.396202 152.412308,63.688232 
	C147.799652,49.668583 138.348587,41.741623 123.794472,40.737843 
	C118.537971,40.375305 112.518448,39.499348 107.775803,44.436367 
	C107.564491,44.649910 107.309441,44.741066 106.445992,44.408192 
	C104.314812,43.892658 102.168205,43.433128 100.055435,42.850788 
	C94.364830,41.282288 88.724121,38.686565 82.791519,42.299580 
	C82.791519,42.299580 82.712509,42.256924 81.872818,42.097980 
	C80.640327,42.824986 79.407829,43.551991 78.172813,44.197205 
	C78.172813,44.197205 78.252777,44.214565 77.418633,44.134804 
	C70.613350,45.130009 63.808071,46.125217 56.242672,47.061588 
	C52.028687,48.243641 47.989365,49.663647 46.069527,54.032928 
	C46.069527,54.032928 46.318176,54.347660 45.584324,54.207481 
	C44.386395,54.475159 43.188469,54.742836 41.939823,54.665741 
	C41.780224,54.522594 41.620628,54.379448 41.461033,54.236301 
	C41.643532,54.489368 41.826027,54.742435 42.200630,55.628654 
	C42.588375,56.150414 42.976120,56.672176 43.098354,57.832230 
	C29.406084,73.785797 36.166534,95.395149 51.197090,105.765717 
	C52.474548,106.178001 53.752003,106.590294 55.617424,107.021263 
	C56.107708,107.302422 56.597996,107.583572 57.537411,108.421967 
	C58.462177,108.487007 59.386944,108.552048 60.174404,108.668907 
	C60.174404,108.668907 60.150074,108.524185 60.605072,109.184410 
	C66.911125,109.409332 67.701775,113.428841 66.981903,118.471664 
	C66.702805,120.426727 66.384583,122.376221 65.763092,124.909500 
	C63.666927,126.230675 61.504253,128.779068 59.485626,128.669678 
	C48.176620,128.056732 43.564281,132.227722 44.101883,144.184998 
	C44.368061,149.473923 46.675934,152.042969 50.704182,150.988647 
	C51.158295,151.262238 51.612404,151.535843 52.598923,152.401962 
	C55.344788,152.136505 58.090652,151.871033 60.807842,151.723129 
	C60.807842,151.723129 60.698818,151.670639 61.426975,151.818619 
	C62.241112,151.140259 63.055248,150.461884 63.871189,149.888580 
	C63.871189,149.888580 63.766685,149.877518 64.302330,149.727951 
M147.456467,151.387878 
	C147.456467,151.387878 147.627625,151.404922 148.372528,151.647842 
	C149.465652,150.647858 150.558777,149.647873 151.992920,148.968109 
	C151.992920,148.968109 151.642471,148.658936 152.400665,148.710587 
	C155.841293,146.086105 157.199417,139.546631 155.281296,134.840256 
	C153.111023,129.515198 146.734726,125.529678 141.469757,126.207306 
	C135.814758,126.935127 132.077774,123.717735 131.955383,117.967972 
	C131.905899,115.643532 131.962540,113.317001 131.954605,110.991478 
	C131.916779,99.923866 131.913437,99.853951 120.854942,100.071762 
	C117.953056,100.128914 115.062599,100.766304 112.093597,101.094826 
	C112.093597,101.094826 112.130898,101.170845 111.484146,101.226746 
	C111.528595,103.525818 111.573044,105.824883 111.830788,108.537178 
	C111.830788,108.537178 112.009979,108.966286 111.705284,109.511093 
	C112.066742,109.962677 112.356575,110.709251 112.801460,110.817268 
	C115.398720,111.447899 119.159897,111.083672 120.358002,112.682022 
	C121.744019,114.531036 120.893990,118.062614 120.995804,120.864380 
	C121.031876,121.856918 121.003365,122.851616 121.019569,123.845085 
	C121.093277,128.363800 124.441475,132.180344 129.657944,133.565460 
	C130.128448,134.724106 131.086014,135.923004 130.994095,137.035156 
	C130.080994,148.081528 136.591721,154.082703 147.201096,151.975433 
	C147.201096,151.975433 147.489883,151.901566 147.489883,151.901566 
	C147.489883,151.901566 147.380890,151.542389 147.456467,151.387878 
M109.125122,112.426064 
	C109.145569,112.170441 109.166016,111.914818 109.186462,111.659195 
	C109.041840,111.655197 108.897217,111.651199 108.752594,111.647202 
	C108.763008,111.903725 108.773422,112.160255 109.125122,112.426064 
M89.194168,97.718025 
	C89.438599,97.671700 89.683037,97.625374 89.927467,97.579048 
	C89.874977,97.472038 89.807655,97.268211 89.772392,97.273605 
	C89.528503,97.310959 89.291283,97.391907 89.194168,97.718025 
M112.496536,112.527916 
	C112.496536,112.527916 112.480133,112.485703 112.496536,112.527916 
M108.522057,105.504860 
	C108.522057,105.504860 108.484787,105.518776 108.522057,105.504860 
z"/>
<path fill="#EEF1F8" opacity="1.000000" stroke="none" 
	d="
M107.010658,44.709831 
	C107.309441,44.741066 107.564491,44.649910 108.301895,44.251881 
	C126.920769,37.916740 144.701584,45.567757 149.792694,62.724510 
	C151.636337,68.937523 154.358093,73.647476 159.250443,77.444435 
	C159.250443,77.444435 159.236832,77.659576 159.416855,78.032570 
	C160.736725,80.230362 161.876572,82.055161 163.016418,83.879959 
	C162.328842,88.447296 162.623917,93.471657 160.755173,97.489655 
	C156.475723,106.690979 149.299835,109.840126 138.632126,108.661079 
	C137.032150,101.079308 137.254852,100.746094 144.356659,100.095726 
	C150.053650,99.574020 153.081909,97.054832 153.992371,92.079865 
	C155.272629,85.084251 153.857834,82.098969 148.382568,78.908844 
	C146.145126,77.605209 143.932205,76.341087 143.980804,72.704285 
	C144.118942,62.366520 139.125839,55.066040 128.889862,50.761780 
	C120.957642,48.491276 114.033264,48.876404 107.836319,53.774342 
	C107.836319,53.774342 107.862579,53.867573 107.492294,53.880726 
	C105.362709,55.892059 103.603416,57.890236 101.844116,59.888412 
	C101.844116,59.888412 101.967102,59.951530 101.616104,60.086330 
	C100.018028,62.987614 98.770935,65.754097 97.772217,67.969612 
	C101.867393,70.960991 105.283607,73.392609 108.625839,75.921974 
	C110.598961,77.415207 110.464600,79.144127 108.839195,80.866173 
	C108.839195,80.866173 108.936226,80.934784 108.587769,80.961105 
	C106.500046,81.335602 104.760780,81.683777 103.021515,82.031952 
	C96.225578,73.945221 89.344238,74.572670 82.718330,84.080185 
	C80.760933,85.228439 79.411148,86.124344 78.061363,87.020248 
	C77.871216,87.024269 77.681061,87.028297 77.030518,86.732910 
	C76.225983,86.348587 75.881836,86.263672 75.537689,86.178757 
	C75.537689,86.178757 75.215141,86.214706 75.180756,85.730255 
	C75.722496,83.123909 76.298630,81.002014 76.874763,78.880119 
	C76.874763,78.880119 77.003708,78.982254 77.289932,78.890396 
	C78.721443,76.915474 79.866714,75.032410 81.011986,73.149353 
	C87.501091,70.674118 91.992432,66.605644 93.154182,59.292263 
	C93.495308,57.144836 95.281006,55.226887 96.396416,53.218563 
	C91.306488,48.096756 84.152901,48.232868 79.599945,53.931934 
	C77.241478,56.884094 75.562347,57.163189 71.841637,55.801979 
	C64.644196,53.168831 58.028198,55.845577 51.814270,61.105507 
	C49.446362,63.925488 47.618191,66.414955 45.790024,68.904434 
	C45.790024,68.904434 45.874935,68.896950 45.568932,69.087112 
	C41.515259,79.499115 43.761662,88.866280 51.574413,95.542137 
	C51.587059,95.541786 51.601421,95.561913 51.690083,95.722519 
	C51.778744,95.883118 52.134678,95.972160 52.312347,96.258347 
	C59.170692,102.062469 67.094383,101.360580 75.268661,101.305984 
	C75.724083,106.519386 75.545609,111.491028 76.060295,116.389847 
	C76.752342,122.976677 75.103737,128.261963 69.625275,132.332169 
	C68.410973,133.234329 67.102425,135.491028 67.420540,136.711273 
	C68.628571,141.345001 67.031631,145.133469 64.875427,148.923309 
	C64.875427,148.923309 64.949539,148.936615 64.674377,148.958374 
	C64.188377,149.279251 63.977531,149.578384 63.766685,149.877518 
	C63.766685,149.877518 63.871189,149.888580 63.560593,149.895035 
	C62.399605,150.491211 61.549213,151.080933 60.698822,151.670639 
	C60.698818,151.670639 60.807842,151.723129 60.380730,151.716309 
	C57.324585,151.742798 54.695549,151.776108 52.066517,151.809433 
	C51.612404,151.535843 51.158295,151.262238 50.246140,150.677887 
	C47.944279,148.018204 46.100460,145.669312 44.256638,143.320404 
	C43.564281,132.227722 48.176620,128.056732 59.485626,128.669678 
	C61.504253,128.779068 63.666927,126.230675 66.298386,124.408081 
	C67.586311,119.130707 68.338936,114.354767 69.129944,109.335213 
	C65.289978,108.988396 62.720024,108.756294 60.150074,108.524185 
	C60.150074,108.524185 60.174404,108.668907 59.978920,108.423935 
	C58.885056,108.074219 57.986668,107.969475 57.088284,107.864723 
	C56.597996,107.583572 56.107708,107.302422 55.123245,106.755035 
	C53.440037,106.051903 52.251003,105.614998 51.061970,105.178093 
	C36.166534,95.395149 29.406084,73.785797 43.513344,57.405430 
	C44.724945,56.101639 45.521561,55.224648 46.318176,54.347656 
	C46.318176,54.347660 46.069527,54.032928 46.529823,54.083698 
	C50.377605,52.187954 53.765087,50.241444 57.571640,48.271790 
	C61.747746,47.918530 65.612885,46.888100 69.232704,47.446869 
	C73.188683,48.057537 75.899475,47.130554 78.252777,44.214565 
	C78.252777,44.214565 78.172813,44.197205 78.525879,44.167877 
	C80.156807,43.511345 81.434654,42.884132 82.712509,42.256924 
	C82.712509,42.256924 82.791519,42.299580 83.298889,42.253326 
	C89.184555,41.307972 94.550819,41.542019 98.879982,45.041363 
	C102.071335,47.620983 104.389732,46.954033 107.010658,44.709831 
M55.652241,136.105301 
	C52.534988,137.125580 50.553432,139.181244 52.443523,142.272736 
	C53.175068,143.469269 56.007938,143.818466 57.834801,143.712662 
	C58.674427,143.664017 60.285835,141.230469 59.993336,140.504211 
	C59.312843,138.814575 57.689175,137.504791 55.652241,136.105301 
z"/>
<path fill="#F0F3F9" opacity="1.000000" stroke="none" 
	d="
M112.009979,108.966286 
	C112.009979,108.966286 111.830788,108.537178 111.843033,107.902618 
	C111.947144,105.235649 112.039017,103.203247 112.130898,101.170845 
	C112.130898,101.170845 112.093597,101.094826 112.583748,101.139236 
	C118.646538,101.183640 124.219170,101.183640 130.076370,101.183640 
	C130.076370,107.082771 130.434784,112.246758 129.968124,117.335075 
	C129.561523,121.768486 132.005020,124.206940 134.525421,127.157997 
	C136.899307,129.937485 139.238785,128.587097 141.751511,128.343399 
	C142.720825,128.249390 143.743469,128.405792 144.708038,128.608673 
	C153.686676,130.497223 156.623657,139.015579 151.642471,148.658936 
	C151.642471,148.658936 151.992920,148.968109 151.531570,148.910034 
	C149.922699,149.702942 148.775162,150.553940 147.627625,151.404938 
	C147.627625,151.404922 147.456467,151.387878 147.311874,151.452362 
	C147.167282,151.516846 147.107590,151.723724 147.107590,151.723724 
	C136.591721,154.082703 130.080994,148.081528 130.994095,137.035156 
	C131.086014,135.923004 130.128448,134.724106 129.389282,132.948547 
	C125.721420,128.671768 122.065956,125.664986 122.416382,119.470406 
	C123.052170,108.231453 124.300949,109.040970 112.009979,108.966286 
M146.575272,141.795441 
	C146.733704,137.322006 144.366211,134.846329 141.219101,136.451904 
	C139.945984,137.101410 138.538437,138.732040 138.414902,140.032394 
	C138.296677,141.276779 139.651093,143.684387 140.559982,143.786591 
	C142.361908,143.989197 144.302750,142.956223 146.575272,141.795441 
z"/>
<path fill="#F5F7F9" opacity="1.000000" stroke="none" 
	d="
M91.021362,159.852005 
	C90.920700,159.579041 90.754974,159.353973 90.235443,158.692108 
	C86.859512,154.001038 87.354713,149.503723 88.867844,144.923737 
	C88.867844,144.923737 88.939499,144.907455 89.127098,144.697556 
	C89.698593,143.890579 90.082481,143.293518 90.466370,142.696442 
	C90.466370,142.696442 90.653336,142.647186 90.999313,142.447311 
	C92.807404,140.797592 95.474457,139.396515 95.535439,137.889969 
	C95.921806,128.344727 95.731628,118.776184 95.731628,108.811348 
	C92.951942,108.811348 90.979614,108.811348 88.895554,108.712044 
	C88.475960,108.491608 88.207764,108.552841 87.716339,108.851883 
	C87.285301,108.969002 87.117149,109.030693 86.708237,109.032166 
	C86.467484,108.971939 85.994728,108.820732 85.871658,108.643417 
	C85.554916,108.243362 85.319130,108.082260 84.944244,107.565331 
	C84.945190,105.446571 85.043114,103.745285 85.599731,102.052628 
	C91.614632,102.056175 97.170837,102.051086 102.852997,102.369095 
	C102.940186,103.149483 102.901428,103.606773 102.642311,104.403885 
	C102.287415,112.212502 102.036140,119.681778 102.065956,127.149925 
	C102.081642,131.078705 102.588760,135.005539 103.041527,139.239014 
	C111.650795,144.979294 113.110481,150.176041 108.398605,158.986191 
	C108.108261,159.382645 108.064186,159.690186 108.020111,159.997726 
	C108.020111,159.997726 107.984169,160.013275 107.831390,160.183990 
	C107.468628,160.576096 107.253075,160.791901 107.031952,161.002136 
	C107.031952,161.002136 107.004410,160.979462 106.610123,160.961243 
	C100.892952,164.173203 95.869728,163.230164 91.021362,159.852005 
M95.006859,150.700607 
	C94.932060,153.858780 96.736885,155.681122 99.579567,154.986099 
	C101.158928,154.599930 102.738495,152.464905 103.379761,150.764328 
	C103.679344,149.969833 101.562111,147.185959 100.872520,147.300705 
	C98.885010,147.631363 97.066521,148.978043 95.006859,150.700607 
z"/>
<path fill="#121DC5" opacity="1.000000" stroke="none" 
	d="
M85.994728,108.820740 
	C85.994728,108.820732 86.467484,108.971939 86.755386,109.196243 
	C87.043289,109.420540 87.159920,109.741203 87.159927,109.741203 
	C86.734131,110.677719 86.308334,111.614227 85.882538,112.550735 
	C84.849426,111.993408 82.959846,111.483124 82.926216,110.870903 
	C82.746887,107.605690 82.782471,104.272079 83.334534,101.063797 
	C83.469429,100.279839 85.816818,99.402161 87.157722,99.384506 
	C92.224838,99.317757 97.296478,99.655342 102.366127,99.647270 
	C103.021629,99.646225 103.675323,98.508278 105.688797,96.627769 
	C105.688797,102.294174 105.647812,106.783859 105.697899,111.272530 
	C105.784355,119.019691 105.681854,126.782715 106.200424,134.502686 
	C106.350670,136.739456 108.243034,138.917191 109.521614,141.009003 
	C112.990845,146.684845 114.749901,152.460251 110.458839,158.934784 
	C109.447304,159.053680 109.046097,158.975479 108.644890,158.897278 
	C113.110481,150.176041 111.650795,144.979294 103.143806,138.788086 
	C103.006577,126.708961 102.934624,115.386513 102.862671,104.064072 
	C102.901428,103.606773 102.940186,103.149483 102.655090,102.008728 
	C96.601181,101.564850 90.871109,101.804428 85.141045,102.043999 
	C85.043114,103.745285 84.945190,105.446571 84.923721,107.845917 
	C85.331688,108.636223 85.663208,108.728477 85.994728,108.820740 
z"/>
<path fill="#242BAE" opacity="1.000000" stroke="none" 
	d="
M152.021576,148.684753 
	C156.623657,139.015579 153.686676,130.497223 144.708038,128.608673 
	C143.743469,128.405792 142.720825,128.249390 141.751511,128.343399 
	C139.238785,128.587097 136.899307,129.937485 134.525421,127.157997 
	C132.005020,124.206940 129.561523,121.768486 129.968124,117.335075 
	C130.434784,112.246758 130.076370,107.082771 130.076370,101.183640 
	C124.219170,101.183640 118.646538,101.183640 112.620392,101.160431 
	C115.062599,100.766304 117.953056,100.128914 120.854942,100.071762 
	C131.913437,99.853951 131.916779,99.923866 131.954605,110.991478 
	C131.962540,113.317001 131.905899,115.643532 131.955383,117.967972 
	C132.077774,123.717735 135.814758,126.935127 141.469757,126.207306 
	C146.734726,125.529678 153.111023,129.515198 155.281296,134.840256 
	C157.199417,139.546631 155.841293,146.086105 152.021576,148.684753 
z"/>
<path fill="#2E35A9" opacity="1.000000" stroke="none" 
	d="
M159.371887,77.089500 
	C154.358093,73.647476 151.636337,68.937523 149.792694,62.724510 
	C144.701584,45.567757 126.920769,37.916740 108.429649,44.086597 
	C112.518448,39.499348 118.537971,40.375305 123.794472,40.737843 
	C138.348587,41.741623 147.799652,49.668583 152.412308,63.688232 
	C153.632309,67.396202 156.547287,70.536446 158.597336,73.988823 
	C159.076996,74.796593 159.204056,75.813751 159.371887,77.089500 
z"/>
<path fill="#1F28B7" opacity="1.000000" stroke="none" 
	d="
M65.236053,148.892853 
	C67.031631,145.133469 68.628571,141.345001 67.420540,136.711273 
	C67.102425,135.491028 68.410973,133.234329 69.625275,132.332169 
	C75.103737,128.261963 76.752342,122.976677 76.060295,116.389847 
	C75.545609,111.491028 75.724083,106.519386 75.272049,101.094818 
	C74.950272,100.609467 74.926949,100.187622 74.926949,100.187622 
	C75.934311,101.761093 77.712585,103.286995 77.813110,104.916412 
	C78.209129,111.335320 78.234573,117.791801 78.027573,124.222435 
	C77.978325,125.752327 76.777908,127.511940 75.621933,128.689865 
	C72.017723,132.362518 69.738884,136.270096 69.698677,141.762314 
	C69.681282,144.138885 67.043930,146.496277 65.236053,148.892853 
z"/>
<path fill="#3D43C1" opacity="1.000000" stroke="none" 
	d="
M87.588806,109.784225 
	C87.159920,109.741203 87.043289,109.420540 86.996140,109.256462 
	C87.117149,109.030693 87.285301,108.969002 87.972557,108.913963 
	C88.663536,108.884193 88.835411,108.847771 89.007286,108.811348 
	C90.979614,108.811348 92.951942,108.811348 95.731628,108.811348 
	C95.731628,118.776184 95.921806,128.344727 95.535439,137.889969 
	C95.474457,139.396515 92.807404,140.797592 91.021851,142.353302 
	C96.678177,134.374466 93.293266,125.031502 94.266632,116.269295 
	C94.812790,111.352753 93.092072,109.075211 87.588806,109.784225 
z"/>
<path fill="#121DC5" opacity="1.000000" stroke="none" 
	d="
M111.857635,109.238693 
	C124.300949,109.040970 123.052170,108.231453 122.416382,119.470406 
	C122.065956,125.664986 125.721420,128.671768 129.103333,132.689362 
	C124.441475,132.180344 121.093277,128.363800 121.019569,123.845085 
	C121.003365,122.851616 121.031876,121.856918 120.995804,120.864380 
	C120.893990,118.062614 121.744019,114.531036 120.358002,112.682022 
	C119.159897,111.083672 115.398720,111.447899 112.801460,110.817268 
	C112.356575,110.709251 112.066742,109.962677 111.857635,109.238693 
z"/>
<path fill="#4A51B2" opacity="1.000000" stroke="none" 
	d="
M109.186264,80.831177 
	C110.464600,79.144127 110.598961,77.415207 108.625839,75.921974 
	C105.283607,73.392609 101.867393,70.960991 97.772217,67.969612 
	C98.770935,65.754097 100.018028,62.987614 101.566673,60.038021 
	C101.839157,60.348011 101.918587,60.878304 101.764275,61.328472 
	C100.158203,66.013695 100.043503,69.219078 106.239334,71.131416 
	C111.239075,72.674576 112.286354,78.013237 109.186264,80.831177 
z"/>
<path fill="#2D349F" opacity="1.000000" stroke="none" 
	d="
M51.561768,95.542488 
	C43.761662,88.866280 41.515259,79.499115 45.559105,69.045639 
	C46.480076,75.079178 46.821068,81.393051 47.883022,87.583221 
	C48.256565,89.760635 50.397118,91.634903 51.772667,94.272507 
	C51.730251,95.112442 51.646008,95.327461 51.561768,95.542488 
z"/>
<path fill="#2429AC" opacity="1.000000" stroke="none" 
	d="
M106.728325,44.559013 
	C104.389732,46.954033 102.071335,47.620983 98.879982,45.041363 
	C94.550819,41.542019 89.184555,41.307972 83.330566,42.221512 
	C88.724121,38.686565 94.364830,41.282288 100.055435,42.850788 
	C102.168205,43.433128 104.314812,43.892658 106.728325,44.559013 
z"/>
<path fill="#2B34AC" opacity="1.000000" stroke="none" 
	d="
M74.479889,100.145401 
	C74.926949,100.187622 74.950272,100.609467 74.946892,100.820625 
	C67.094383,101.360580 59.170692,102.062469 52.462181,96.145645 
	C52.628422,95.581779 52.765339,95.378334 52.870392,95.109299 
	C52.895691,95.082146 52.940063,95.022636 52.940063,95.022636 
	C59.288284,99.550522 66.562325,100.234688 74.479889,100.145401 
z"/>
<path fill="#4A51B2" opacity="1.000000" stroke="none" 
	d="
M108.181885,53.795753 
	C114.033264,48.876404 120.957642,48.491276 128.528030,50.725670 
	C121.832596,50.467178 114.976601,50.694462 108.181885,53.795753 
z"/>
<path fill="#2429AC" opacity="1.000000" stroke="none" 
	d="
M77.835709,44.174683 
	C75.899475,47.130554 73.188683,48.057537 69.232704,47.446869 
	C65.612885,46.888100 61.747746,47.918530 57.529343,47.978912 
	C57.046246,47.512920 57.024517,47.316669 57.002792,47.120422 
	C63.808071,46.125217 70.613350,45.130009 77.835709,44.174683 
z"/>
<path fill="#3D43C1" opacity="1.000000" stroke="none" 
	d="
M88.537132,145.058167 
	C87.354713,149.503723 86.859512,154.001038 90.053429,158.583817 
	C85.439499,156.080399 84.784096,151.461853 88.537132,145.058167 
z"/>
<path fill="#3D43C1" opacity="1.000000" stroke="none" 
	d="
M91.089905,160.213623 
	C95.869728,163.230164 100.892952,164.173203 106.600601,160.976349 
	C103.259979,165.267792 95.549660,165.056168 91.089905,160.213623 
z"/>
<path fill="#1E26BF" opacity="1.000000" stroke="none" 
	d="
M56.622734,47.091003 
	C57.024517,47.316669 57.046246,47.512920 57.110275,48.002052 
	C53.765087,50.241444 50.377605,52.187954 46.662804,54.234005 
	C47.989365,49.663647 52.028687,48.243641 56.622734,47.091003 
z"/>
<path fill="#1822AD" opacity="1.000000" stroke="none" 
	d="
M60.377571,108.854294 
	C62.720024,108.756294 65.289978,108.988396 69.129944,109.335213 
	C68.338936,114.354767 67.586311,119.130707 66.458939,124.117447 
	C66.384583,122.376221 66.702805,120.426727 66.981903,118.471664 
	C67.701775,113.428841 66.911125,109.409332 60.377571,108.854294 
z"/>
<path fill="#1F28B7" opacity="1.000000" stroke="none" 
	d="
M44.179260,143.752701 
	C46.100460,145.669312 47.944279,148.018204 49.975815,150.649872 
	C46.675934,152.042969 44.368061,149.473923 44.179260,143.752701 
z"/>
<path fill="#2D349F" opacity="1.000000" stroke="none" 
	d="
M46.133709,68.857590 
	C47.618191,66.414955 49.446362,63.925488 51.586617,61.398102 
	C50.091599,63.843716 48.284500,66.327232 46.133709,68.857590 
z"/>
<path fill="#2E35A9" opacity="1.000000" stroke="none" 
	d="
M163.207520,83.634735 
	C161.876572,82.055161 160.736725,80.230362 159.515167,78.076767 
	C162.814957,78.180748 163.655579,80.399406 163.207520,83.634735 
z"/>
<path fill="#4A51B2" opacity="1.000000" stroke="none" 
	d="
M102.175713,59.817398 
	C103.603416,57.890236 105.362709,55.892059 107.456406,53.848202 
	C106.029648,55.783810 104.268478,57.765095 102.175713,59.817398 
z"/>
<path fill="#D9E3F7" opacity="1.000000" stroke="none" 
	d="
M80.677734,73.189758 
	C79.866714,75.032410 78.721443,76.915474 77.222198,78.844978 
	C78.026649,77.004341 79.185066,75.117249 80.677734,73.189758 
z"/>
<path fill="#242BAE" opacity="1.000000" stroke="none" 
	d="
M111.807526,101.198792 
	C112.039017,103.203247 111.947144,105.235649 111.736374,107.695999 
	C111.573044,105.824883 111.528595,103.525818 111.807526,101.198792 
z"/>
<path fill="#D9E3F7" opacity="1.000000" stroke="none" 
	d="
M76.587448,79.071701 
	C76.298630,81.002014 75.722496,83.123909 75.077042,85.605446 
	C72.469475,83.158592 75.115395,81.351830 76.587448,79.071701 
z"/>
<path fill="#4A51B2" opacity="1.000000" stroke="none" 
	d="
M102.839340,82.228851 
	C104.760780,81.683777 106.500046,81.335602 108.559799,80.908676 
	C107.674133,84.747597 105.348427,84.299423 102.839340,82.228851 
z"/>
<path fill="#D9E3F7" opacity="1.000000" stroke="none" 
	d="
M78.352676,87.233093 
	C79.411148,86.124344 80.760933,85.228439 82.360756,84.156914 
	C83.344070,87.489632 82.192505,88.839958 78.352676,87.233093 
z"/>
<path fill="#1E26BF" opacity="1.000000" stroke="none" 
	d="
M45.951248,54.277569 
	C45.521561,55.224648 44.724945,56.101639 43.646095,57.086281 
	C42.976120,56.672176 42.588375,56.150414 42.099899,55.314766 
	C41.999168,55.000881 41.990540,55.010513 41.990540,55.010513 
	C43.188469,54.742836 44.386395,54.475159 45.951248,54.277569 
z"/>
<path fill="#1F28B7" opacity="1.000000" stroke="none" 
	d="
M52.332718,152.105698 
	C54.695549,151.776108 57.324585,151.742798 60.395069,151.657516 
	C58.090652,151.871033 55.344788,152.136505 52.332718,152.105698 
z"/>
<path fill="#242BAE" opacity="1.000000" stroke="none" 
	d="
M148.000076,151.526398 
	C148.775162,150.553940 149.922699,149.702942 151.361069,148.749908 
	C150.558777,149.647873 149.465652,150.647858 148.000076,151.526398 
z"/>
<path fill="#1822AD" opacity="1.000000" stroke="none" 
	d="
M51.129532,105.471909 
	C52.251003,105.614998 53.440037,106.051903 54.829266,106.745697 
	C53.752003,106.590294 52.474548,106.178001 51.129532,105.471909 
z"/>
<path fill="#2429AC" opacity="1.000000" stroke="none" 
	d="
M82.292664,42.177452 
	C81.434654,42.884132 80.156807,43.511345 78.527145,44.208775 
	C79.407829,43.551991 80.640327,42.824986 82.292664,42.177452 
z"/>
<path fill="#1F28B7" opacity="1.000000" stroke="none" 
	d="
M61.062897,151.744629 
	C61.549213,151.080933 62.399605,150.491211 63.559692,149.842499 
	C63.055248,150.461884 62.241112,151.140259 61.062897,151.744629 
z"/>
<path fill="#121DC5" opacity="1.000000" stroke="none" 
	d="
M108.954483,112.421417 
	C108.773422,112.160255 108.763008,111.903725 108.752594,111.647202 
	C108.897217,111.651199 109.041840,111.655197 109.186462,111.659195 
	C109.166016,111.914818 109.145569,112.170441 108.954483,112.421417 
z"/>
<path fill="#3D43C1" opacity="1.000000" stroke="none" 
	d="
M90.169495,142.733276 
	C90.082481,143.293518 89.698593,143.890579 89.108665,144.665771 
	C89.225960,144.152618 89.549286,143.461365 90.169495,142.733276 
z"/>
<path fill="#3D43C1" opacity="1.000000" stroke="none" 
	d="
M108.398605,158.986191 
	C109.046097,158.975479 109.447304,159.053680 110.140137,159.193863 
	C110.431755,159.255844 110.552528,159.443726 110.475250,159.579681 
	C110.397980,159.715622 110.131813,159.774460 110.131813,159.774460 
	C109.662888,159.825150 109.193970,159.875839 108.372581,159.962128 
	C108.064186,159.690186 108.108261,159.382645 108.398605,158.986191 
z"/>
<path fill="#121DC5" opacity="1.000000" stroke="none" 
	d="
M89.123047,97.588440 
	C89.291283,97.391907 89.528503,97.310959 89.772392,97.273605 
	C89.807655,97.268211 89.874977,97.472038 89.927467,97.579048 
	C89.683037,97.625374 89.438599,97.671700 89.123047,97.588440 
z"/>
<path fill="#1822AD" opacity="1.000000" stroke="none" 
	d="
M57.312847,108.143341 
	C57.986668,107.969475 58.885056,108.074219 60.047577,108.398026 
	C59.386944,108.552048 58.462177,108.487007 57.312847,108.143341 
z"/>
<path fill="#1E26BF" opacity="1.000000" stroke="none" 
	d="
M42.003845,54.998192 
	C41.826027,54.742435 41.643532,54.489368 41.461033,54.236301 
	C41.620628,54.379448 41.780224,54.522594 41.965179,54.838127 
	C41.990540,55.010513 41.999168,55.000881 42.003845,54.998192 
z"/>
<path fill="#121DC5" opacity="1.000000" stroke="none" 
	d="
M112.488335,112.506805 
	C112.480133,112.485703 112.496536,112.527916 112.488335,112.506805 
z"/>
<path fill="#242BAE" opacity="1.000000" stroke="none" 
	d="
M147.154343,151.849579 
	C147.107590,151.723724 147.167282,151.516846 147.274078,151.529617 
	C147.380890,151.542389 147.489883,151.901566 147.489883,151.901566 
	C147.489883,151.901566 147.201096,151.975433 147.154343,151.849579 
z"/>
<path fill="#121DC5" opacity="1.000000" stroke="none" 
	d="
M110.187469,159.908081 
	C110.131813,159.774460 110.397980,159.715622 110.526993,159.678635 
	C110.656006,159.641647 110.587395,160.043335 110.587395,160.043335 
	C110.587395,160.043335 110.243126,160.041687 110.187469,159.908081 
z"/>
<path fill="#3D43C1" opacity="1.000000" stroke="none" 
	d="
M107.302307,160.981857 
	C107.253075,160.791901 107.468628,160.576096 107.844978,160.198090 
	C107.865120,160.348160 107.718887,160.654877 107.302307,160.981857 
z"/>
<path fill="#1F28B7" opacity="1.000000" stroke="none" 
	d="
M64.034508,149.802734 
	C63.977531,149.578384 64.188377,149.279251 64.677979,148.920883 
	C64.738594,149.150421 64.520462,149.439194 64.034508,149.802734 
z"/>
<path fill="#121DC5" opacity="1.000000" stroke="none" 
	d="
M108.503418,105.511818 
	C108.484787,105.518776 108.522057,105.504860 108.503418,105.511818 
z"/>
<path fill="#D9E3F7" opacity="1.000000" stroke="none" 
	d="
M75.716675,86.395630 
	C75.881836,86.263672 76.225983,86.348587 76.772629,86.610916 
	C76.615303,86.729713 76.255478,86.671104 75.716675,86.395630 
z"/>
<path fill="#2B34AC" opacity="1.000000" stroke="none" 
	d="
M51.574413,95.542137 
	C51.646008,95.327461 51.730251,95.112442 51.953575,94.582962 
	C52.355137,94.333801 52.568878,94.473648 52.836975,94.855331 
	C52.940063,95.022636 52.895691,95.082146 52.554199,95.197372 
	C52.008942,95.395706 51.805183,95.478813 51.601421,95.561913 
	C51.601421,95.561913 51.587059,95.541786 51.574413,95.542137 
z"/>
<path fill="#1A21A7" opacity="1.000000" stroke="none" 
	d="
M56.049973,136.073196 
	C57.689175,137.504791 59.312843,138.814575 59.993336,140.504211 
	C60.285835,141.230469 58.674427,143.664017 57.834801,143.712662 
	C56.007938,143.818466 53.175068,143.469269 52.443523,142.272736 
	C50.553432,139.181244 52.534988,137.125580 56.049973,136.073196 
z"/>
<path fill="#2D349F" opacity="1.000000" stroke="none" 
	d="
M51.690083,95.722519 
	C51.805183,95.478813 52.008942,95.395706 52.528900,95.224518 
	C52.765339,95.378334 52.628422,95.581779 52.284512,95.859467 
	C52.134678,95.972160 51.778744,95.883118 51.690083,95.722519 
z"/>
<path fill="#2028AE" opacity="1.000000" stroke="none" 
	d="
M146.380722,142.114685 
	C144.302750,142.956223 142.361908,143.989197 140.559982,143.786591 
	C139.651093,143.684387 138.296677,141.276779 138.414902,140.032394 
	C138.538437,138.732040 139.945984,137.101410 141.219101,136.451904 
	C144.366211,134.846329 146.733704,137.322006 146.380722,142.114685 
z"/>
<path fill="#1E25BF" opacity="1.000000" stroke="none" 
	d="
M95.094254,150.313126 
	C97.066521,148.978043 98.885010,147.631363 100.872520,147.300705 
	C101.562111,147.185959 103.679344,149.969833 103.379761,150.764328 
	C102.738495,152.464905 101.158928,154.599930 99.579567,154.986099 
	C96.736885,155.681122 94.932060,153.858780 95.094254,150.313126 
z"/>
<path fill="#D6DDFD" opacity="1.000000" stroke="none" 
	d="
M102.642319,104.403885 
	C102.934624,115.386513 103.006577,126.708961 102.976250,138.482330 
	C102.588760,135.005539 102.081642,131.078705 102.065956,127.149925 
	C102.036140,119.681778 102.287415,112.212502 102.642319,104.403885 
z"/>
<path fill="#D6DDFD" opacity="1.000000" stroke="none" 
	d="
M85.599731,102.052628 
	C90.871109,101.804428 96.601181,101.564850 102.529144,101.685638 
	C97.170837,102.051086 91.614632,102.056175 85.599731,102.052628 
z"/>
<path fill="#D6DDFD" opacity="1.000000" stroke="none" 
	d="
M88.895554,108.712044 
	C88.835411,108.847771 88.663536,108.884193 88.235443,108.858536 
	C88.207764,108.552841 88.475960,108.491608 88.895554,108.712044 
z"/>
<path fill="#D6DDFD" opacity="1.000000" stroke="none" 
	d="
M85.871658,108.643417 
	C85.663208,108.728477 85.331688,108.636223 85.020699,108.263382 
	C85.319130,108.082260 85.554916,108.243362 85.871658,108.643417 
z"/>
</svg>